<?xml version="1.0" encoding="utf-8"?>
<!-- Generator: Adobe Illustrator 24.0.1, SVG Export Plug-In . SVG Version: 6.00 Build 0)  -->
<svg version="1.1" id="Слой_1" xmlns="http://www.w3.org/2000/svg" xmlns:xlink="http://www.w3.org/1999/xlink" x="0px" y="0px"
	 viewBox="0 0 419 118" style="enable-background:new 0 0 419 118;" xml:space="preserve">
<style type="text/css">
	.st0{fill:#121239;}
	.st1{fill:#F9423A;}
</style>
<g>
	<g>
		<path class="st0" d="M79.9,0v23.7c0,16.5-4.1,22.9-4.1,22.9C70.2,55.5,61.9,59,61.9,59h0c0,0,0,0,0,0c0,0,0,0,0,0h0
			c0,0,8.3,3.5,13.9,12.5c0,0,4.1,6.3,4.1,22.9V118h16.7H118V0H79.9z"/>
		<path class="st0" d="M51.3,94.3c0,0,0.8-20.7-16.5-22.9c0,0-1.2-0.1-2.5-0.1c-1.2,0-2.6,0-2.6,0V59v0V46.8c0,0,1.4,0,2.6,0
			c1.3,0,2.5-0.1,2.5-0.1c17.3-2.2,16.5-22.9,16.5-22.9V0H-0.1v118H43h8.2V94.3z"/>
		<path class="st1" d="M34.8,46.6c0,0-1.2,0.1-2.5,0.1c-1.2,0-2.6,0-2.6,0V59v0v12.2c0,0,1.4,0,2.6,0c1.3,0,2.5,0.1,2.5,0.1
			c17.3,2.2,16.5,22.9,16.5,22.9V118h28.6V94.4c0-16.5-4.1-22.9-4.1-22.9C70.2,62.5,61.9,59,61.9,59h0c0,0,0,0,0,0c0,0,0,0,0,0h0
			c0,0,8.3-3.5,13.9-12.5c0,0,4.1-6.3,4.1-22.9V0H51.3v23.7C51.3,23.7,52.1,44.4,34.8,46.6z"/>
	</g>
	<g>
		<g>
			<path class="st0" d="M150.2,15.1H162V35l18.3-19.9h15.7l-20.9,21.2l22.7,32.5h-14.8L167,44.5l-5,5.1v19.2h-11.8V15.1z"/>
			<path class="st0" d="M256.8,41.3c0,8-2.7,14.8-8.2,20.3c-5.5,5.5-12.2,8.3-20.2,8.3c-7.9,0-14.6-2.8-20.2-8.4
				c-5.5-5.6-8.3-12.3-8.3-20.2c0-7.9,2.8-14.5,8.4-20c5.6-5.5,12.3-8.3,20.2-8.3c7.9,0,14.6,2.7,20.1,8.2
				C254,26.7,256.8,33.4,256.8,41.3z M245.7,41.2c0-4.9-1.7-9.2-5-12.7c-3.3-3.6-7.5-5.4-12.3-5.4c-4.8,0-8.9,1.8-12.3,5.4
				c-3.4,3.6-5.1,7.9-5.1,12.7c0,4.9,1.7,9.2,5,12.9c3.3,3.7,7.5,5.6,12.3,5.6c5.1,0,9.3-1.9,12.6-5.6
				C244.1,50.7,245.7,46.3,245.7,41.2z"/>
			<path class="st0" d="M309.6,30.9c0,4.1-1,7.7-3,10.7c-2,3-4.9,5.1-8.7,6.4c-2.1,0.7-4.5,1.1-7.3,1.2c-0.2,0-8.3,0-13.1,0v19.6
				h-10.9V14h22.2c3.3,0,6.1,0.3,8.3,0.8c4,1,7,2.9,9.2,5.7C308.6,23.4,309.6,26.8,309.6,30.9z M277.6,23.9v15.5h11.3
				c6.7,0,10.1-2.6,10.1-7.7c0-5.2-3.3-7.8-9.8-7.8H277.6z"/>
			<path class="st0" d="M361.9,14l-23,54.8h-11.3l5.3-12.6l-19-42.2h11.6l12.7,29.3L350.4,14H361.9z"/>
			<path class="st0" d="M418.6,51.7c-2.2,5.6-5.5,10.1-10.1,13.3c-4.5,3.2-9.8,4.9-15.8,4.9c-8.1,0-14.8-2.8-20.3-8.3
				c-5.5-5.5-8.3-12.3-8.3-20.4c0-7.9,2.8-14.6,8.3-20c5.5-5.5,12.2-8.2,20.1-8.2c6.2,0,11.6,1.6,16.2,4.9c4.6,3.2,7.9,7.8,9.9,13.6
				h-12c-3.2-5.6-8-8.4-14.1-8.4c-4.9,0-9,1.8-12.3,5.3c-3.3,3.5-4.9,7.8-4.9,12.7c0,5,1.6,9.3,4.9,12.9c3.3,3.8,7.5,5.7,12.4,5.7
				c6.2,0,10.9-2.7,13.9-8.1H418.6z"/>
		</g>
		<g>
			<path class="st0" d="M150.2,85.8h3.5v6l5.5-6h4.7l-6.3,6.4l6.8,9.7h-4.4l-4.8-7.3l-1.5,1.5v5.8h-3.5V85.8z"/>
			<path class="st0" d="M182.5,93.7c0,2.4-0.8,4.4-2.5,6.1c-1.6,1.7-3.7,2.5-6.1,2.5c-2.4,0-4.4-0.8-6-2.5c-1.7-1.7-2.5-3.7-2.5-6.1
				c0-2.4,0.8-4.4,2.5-6c1.7-1.7,3.7-2.5,6-2.5c2.4,0,4.4,0.8,6,2.5C181.7,89.3,182.5,91.3,182.5,93.7z M179.2,93.7
				c0-1.5-0.5-2.8-1.5-3.8s-2.2-1.6-3.7-1.6c-1.4,0-2.7,0.5-3.7,1.6c-1,1.1-1.5,2.4-1.5,3.8c0,1.5,0.5,2.8,1.5,3.9
				c1,1.1,2.2,1.7,3.7,1.7c1.5,0,2.8-0.6,3.8-1.7C178.7,96.5,179.2,95.2,179.2,93.7z"/>
			<path class="st0" d="M197.9,102h-3.3v-6.9h-6.1v6.9h-3.3V85.5h3.3v6.6h6.1v-6.6h3.3V102z"/>
			<path class="st0" d="M217.8,96.8c-0.7,1.7-1.7,3-3,4c-1.4,1-2.9,1.5-4.7,1.5c-2.4,0-4.5-0.8-6.1-2.5c-1.7-1.7-2.5-3.7-2.5-6.1
				c0-2.4,0.8-4.4,2.5-6c1.7-1.6,3.7-2.5,6-2.5c1.9,0,3.5,0.5,4.9,1.5c1.4,1,2.4,2.3,3,4.1h-3.6c-1-1.7-2.4-2.5-4.2-2.5
				c-1.5,0-2.7,0.5-3.7,1.6c-1,1.1-1.5,2.3-1.5,3.8c0,1.5,0.5,2.8,1.5,3.9c1,1.1,2.2,1.7,3.7,1.7c1.9,0,3.3-0.8,4.2-2.4H217.8z"/>
			<path class="st0" d="M234.8,102h-3.6l-1.3-3.6h-6.1l-1.3,3.6H219l6.5-16.4h2.8L234.8,102z M228.9,95.6l-2-6l-2.1,6H228.9z"/>
			<path class="st0" d="M250.6,102h-3.4l-4-12.4l-4,12.4h-3.4l5.6-16.4h3.6L250.6,102z"/>
			<path class="st0" d="M261.1,88.5h-3.3V102h-3.3V88.5h-3.2v-2.9h9.8V88.5z"/>
			<path class="st0" d="M277.5,102h-3.3V91.1L267,102h-2.8V85.5h3.3v10.9l7.3-10.9h2.8V102z"/>
			<path class="st0" d="M294.4,102h-3.3v-6.9H285v6.9h-3.3V85.5h3.3v6.6h6.1v-6.6h3.3V102z"/>
			<path class="st0" d="M307.2,88.5h-5.3V102h-3.3V85.5h8.6V88.5z"/>
		</g>
	</g>
</g>
</svg>
