<?xml version="1.0" encoding="utf-8"?>
<!-- Generator: Adobe Illustrator 16.0.0, SVG Export Plug-In . SVG Version: 6.00 Build 0)  -->
<!DOCTYPE svg PUBLIC "-//W3C//DTD SVG 1.1//EN" "http://www.w3.org/Graphics/SVG/1.1/DTD/svg11.dtd">
<svg version="1.1" id="Слой_1" xmlns="http://www.w3.org/2000/svg" xmlns:xlink="http://www.w3.org/1999/xlink" x="0px" y="0px"
	 width="427.941px" height="233.635px" viewBox="75.273 216.121 427.941 233.635"
	 enable-background="new 75.273 216.121 427.941 233.635" xml:space="preserve">
<g>
	<path d="M266.019,428.166l-5.233,11.412h10.396L266.019,428.166z M274.378,446.41l-2.471-5.523h-11.631l-2.545,5.523h-1.526
		l9.159-19.844h1.381l9.16,19.844H274.378z"/>
	<g>
		<path d="M295.096,432.818c0-3.127-2.398-4.727-5.96-4.727h-5.598v9.668h5.379C292.625,437.688,295.096,435.799,295.096,432.818
			L295.096,432.818z M288.845,439.068h-5.307v7.342h-1.454v-19.699h7.124c4.361,0,7.342,2.254,7.342,6.033v0.074
			C296.55,436.889,292.989,439.068,288.845,439.068"/>
	</g>
	<polygon points="319.957,446.41 319.957,429.256 312.18,440.596 312.033,440.596 304.255,429.256 304.255,446.41 302.875,446.41 
		302.875,426.711 304.183,426.711 312.107,438.342 320.029,426.711 321.412,426.711 321.412,446.41 	"/>
	<path d="M337.404,428.166l-5.234,11.412h10.395L337.404,428.166z M345.691,446.41l-2.473-5.523h-11.631l-2.471,5.523h-1.527
		l9.16-19.844h1.381l9.158,19.844H345.691z"/>
	<polygon points="376.148,446.41 376.148,426.711 390.178,426.711 390.178,428.02 377.604,428.02 377.604,435.799 388.869,435.799 
		388.869,437.105 377.604,437.105 377.604,445.029 390.324,445.029 390.324,446.41 	"/>
	<polygon points="368.588,445.029 368.225,445.029 368.225,426.711 366.771,426.711 366.771,435.799 366.771,437.105 
		366.771,445.029 366.771,445.029 357.248,445.029 354.051,445.029 354.051,437.105 354.051,435.799 354.051,426.711 
		352.596,426.711 352.596,446.41 357.248,446.41 368.225,446.41 368.588,446.41 368.588,449.756 369.971,449.756 369.971,446.41 
		369.971,445.029 	"/>
	<g>
		<path d="M411.113,440.959c0-2.398-2.107-3.854-5.961-3.854h-6.688v7.924h7.125C408.934,445.029,411.113,443.504,411.113,440.959
			L411.113,440.959z M410.023,431.654c0-2.18-1.744-3.635-4.943-3.635h-6.615v7.779h6.543
			C407.916,435.799,410.023,434.344,410.023,431.654L410.023,431.654z M405.518,446.41h-8.578v-19.699h8.141
			c3.854,0,6.396,1.891,6.396,4.871v0.072c0,2.689-1.744,3.998-3.344,4.652c2.4,0.654,4.436,1.963,4.436,4.725v0.072
			C412.568,444.303,409.805,446.41,405.518,446.41"/>
	</g>
	<polygon points="425.652,428.02 425.652,446.41 424.125,446.41 424.125,428.02 417.293,428.02 417.293,426.711 432.486,426.711 
		432.486,428.02 	"/>
	<polygon points="477.555,446.41 469.486,436.451 464.543,441.395 464.543,446.41 463.09,446.41 463.09,426.711 464.543,426.711 
		464.543,439.65 477.119,426.711 479.154,426.711 470.504,435.361 479.518,446.41 	"/>
	<path d="M493.402,428.166l-5.234,11.412h10.395L493.402,428.166z M501.689,446.41l-2.545-5.523h-11.631l-2.471,5.523h-1.527
		l9.16-19.844h1.381l9.158,19.844H501.689z"/>
	<polygon points="439.246,446.41 439.246,426.711 440.699,426.711 440.699,443.795 454.293,426.711 455.674,426.711 455.674,446.41 
		454.221,446.41 454.221,428.893 440.336,446.41 	"/>
	<rect x="241.958" y="426.711" width="1.381" height="19.699"/>
	<g>
		<path d="M241.958,429.838v-1.309c-5.089,0-9.814,2.617-9.814,8.213v0.074c0,5.67,4.799,7.705,9.814,7.705v-1.309
			c-4.217,0-8.506-1.527-8.506-6.471v-0.072C233.526,431.727,237.742,429.838,241.958,429.838"/>
		<path d="M243.267,429.838v-1.309c5.088,0,9.812,2.617,9.812,8.213v0.074c0,5.67-4.797,7.705-9.812,7.705v-1.309
			c4.216,0,8.432-1.527,8.432-6.471v-0.072C251.771,431.727,247.483,429.838,243.267,429.838"/>
	</g>
	<g>
		<g>
			<defs>
				<path id="SVGID_1_" d="M113.074,310.112c-58.59-29.15,19.409-64.697,19.409-64.697c26.46-16.065,36.2,7.924,31.839,31.912
					c-3.417,18.609-15.193,37.146-34.238,37.146C124.923,314.546,119.253,313.238,113.074,310.112 M79.199,273.184
					c-2.253,7.342-3.635,14.684-3.926,21.517v5.089c0.654,15.992,8.142,28.423,25.079,30.312h9.668
					c0.509-0.073,1.09-0.145,1.599-0.145c0,0,117.471-13.375,56.846-93.556c-10.904-14.393-22.463-20.281-33.512-20.281
					C110.457,216.048,88.067,244.616,79.199,273.184"/>
			</defs>
			<clipPath id="SVGID_2_">
				<use xlink:href="#SVGID_1_"  overflow="visible"/>
			</clipPath>
			
				<linearGradient id="SVGID_3_" gradientUnits="userSpaceOnUse" x1="-1.8042" y1="199.21" x2="-0.0208" y2="199.21" gradientTransform="matrix(11.7402 59.4282 -59.4282 11.7402 11990.4375 -2015.2891)">
				<stop  offset="0" style="stop-color:#57C8E1"/>
				<stop  offset="0.0183" style="stop-color:#4DC6E0"/>
				<stop  offset="0.0787" style="stop-color:#31C1DE"/>
				<stop  offset="0.1439" style="stop-color:#1BBCDC"/>
				<stop  offset="0.2154" style="stop-color:#0CB9DB"/>
				<stop  offset="0.298" style="stop-color:#03B8DA"/>
				<stop  offset="0.4172" style="stop-color:#00B7DA"/>
				<stop  offset="0.611" style="stop-color:#0095B9"/>
				<stop  offset="0.8666" style="stop-color:#006E94"/>
				<stop  offset="1" style="stop-color:#005F85"/>
			</linearGradient>
			<polygon clip-path="url(#SVGID_2_)" fill="url(#SVGID_3_)" points="222.548,182.827 250.753,325.741 61.026,363.25 
				32.821,220.337 			"/>
		</g>
	</g>
	<g>
		<g>
			<defs>
				<path id="SVGID_4_" d="M124.196,304.006c-44.924-7.269-0.363-46.959-0.363-46.959c15.774-17.882,28.059,1.163,28.059,20.136
					c0,13.666-6.397,27.26-22.389,27.26C127.831,304.442,126.086,304.297,124.196,304.006 M132.483,245.488
					c0,0-78,35.547-19.409,64.697c5.161,2.544,10.032,3.925,14.466,4.289h4.943c17.591-1.526,28.568-19.263,31.839-37.073
					c3.417-18.609-1.672-37.146-16.356-37.146C143.605,240.254,138.444,241.854,132.483,245.488"/>
			</defs>
			<clipPath id="SVGID_5_">
				<use xlink:href="#SVGID_4_"  overflow="visible"/>
			</clipPath>
			
				<linearGradient id="SVGID_6_" gradientUnits="userSpaceOnUse" x1="-5.9736" y1="198.1367" x2="-4.1903" y2="198.1367" gradientTransform="matrix(31.2006 18.894 -18.894 31.2006 4028.0967 -5800.1309)">
				<stop  offset="0" style="stop-color:#57C8E1"/>
				<stop  offset="0.0183" style="stop-color:#4DC6E0"/>
				<stop  offset="0.0787" style="stop-color:#31C1DE"/>
				<stop  offset="0.1439" style="stop-color:#1BBCDC"/>
				<stop  offset="0.2154" style="stop-color:#0CB9DB"/>
				<stop  offset="0.298" style="stop-color:#03B8DA"/>
				<stop  offset="0.4172" style="stop-color:#00B7DA"/>
				<stop  offset="0.611" style="stop-color:#0095B9"/>
				<stop  offset="0.8666" style="stop-color:#006E94"/>
				<stop  offset="1" style="stop-color:#005F85"/>
			</linearGradient>
			<polygon clip-path="url(#SVGID_5_)" fill="url(#SVGID_6_)" points="84.869,189.006 201.033,259.373 137.281,364.631 
				21.118,294.265 			"/>
		</g>
	</g>
	<g>
		<g>
			<defs>
				<path id="SVGID_7_" d="M207.284,294.12c-5.307-42.016,74.437-23.334,43.688,1.963c0,0-16.502,17.301-29.368,17.301l0,0
					C214.843,313.311,209.101,308.585,207.284,294.12 M194.925,290.776c-24.352,49.358,105.405,39.399,69.35-14.756
					c-10.178-15.266-20.137-20.791-29.15-20.791C212.082,255.229,194.925,290.776,194.925,290.776"/>
			</defs>
			<clipPath id="SVGID_8_">
				<use xlink:href="#SVGID_7_"  overflow="visible"/>
			</clipPath>
			
				<linearGradient id="SVGID_9_" gradientUnits="userSpaceOnUse" x1="-3.3438" y1="195.9873" x2="-1.5604" y2="195.9873" gradientTransform="matrix(43.7143 -9.2585 9.2585 43.7143 -1476.2554 -8293.1172)">
				<stop  offset="0" style="stop-color:#57C8E1"/>
				<stop  offset="0.0183" style="stop-color:#4DC6E0"/>
				<stop  offset="0.0787" style="stop-color:#31C1DE"/>
				<stop  offset="0.1439" style="stop-color:#1BBCDC"/>
				<stop  offset="0.2154" style="stop-color:#0CB9DB"/>
				<stop  offset="0.298" style="stop-color:#03B8DA"/>
				<stop  offset="0.4172" style="stop-color:#00B7DA"/>
				<stop  offset="0.611" style="stop-color:#0095B9"/>
				<stop  offset="0.8666" style="stop-color:#006E94"/>
				<stop  offset="1" style="stop-color:#005F85"/>
			</linearGradient>
			<polygon clip-path="url(#SVGID_8_)" fill="url(#SVGID_9_)" points="152.764,255.883 294.805,225.789 318.213,336.354 
				176.171,366.449 			"/>
		</g>
	</g>
	<g>
		<g>
			<defs>
				<path id="SVGID_10_" d="M213.462,288.595c5.088-29.077,54.302-0.218,28.641,10.25c0,0-10.758,5.961-19.19,5.961l0,0
					C216.371,304.806,211.208,301.244,213.462,288.595 M207.284,294.12c5.307,42.089,43.688,1.963,43.688,1.963
					c17.592-14.466-1.018-26.751-19.191-26.824C218.333,269.259,205.031,276.165,207.284,294.12"/>
			</defs>
			<clipPath id="SVGID_11_">
				<use xlink:href="#SVGID_10_"  overflow="visible"/>
			</clipPath>
			
				<linearGradient id="SVGID_12_" gradientUnits="userSpaceOnUse" x1="4.394" y1="191.6172" x2="6.1773" y2="191.6172" gradientTransform="matrix(-4.8971 -23.1218 23.1218 -4.8971 -4169.6621 1349.8955)">
				<stop  offset="0" style="stop-color:#57C8E1"/>
				<stop  offset="0.0183" style="stop-color:#4DC6E0"/>
				<stop  offset="0.0787" style="stop-color:#31C1DE"/>
				<stop  offset="0.1439" style="stop-color:#1BBCDC"/>
				<stop  offset="0.2154" style="stop-color:#0CB9DB"/>
				<stop  offset="0.298" style="stop-color:#03B8DA"/>
				<stop  offset="0.4172" style="stop-color:#00B7DA"/>
				<stop  offset="0.611" style="stop-color:#0095B9"/>
				<stop  offset="0.8666" style="stop-color:#006E94"/>
				<stop  offset="1" style="stop-color:#005F85"/>
			</linearGradient>
			<polygon clip-path="url(#SVGID_11_)" fill="url(#SVGID_12_)" points="207.792,349.076 189.474,262.862 265.875,246.651 
				284.12,332.938 			"/>
		</g>
	</g>
	<g>
		<g>
			<defs>
				<path id="SVGID_13_" d="M144.332,360.27c0,0,43.398-51.248,52.92-0.872c4.289,22.825-13.447,31.839-30.821,31.839l0,0
					C145.495,391.31,125.068,378.153,144.332,360.27 M129.793,385.495c47.468,62.734,82.58-22.898,82.58-22.898
					c10.686-25.297-9.668-36.492-33.875-36.492C144.114,326.032,101.879,348.639,129.793,385.495"/>
			</defs>
			<clipPath id="SVGID_14_">
				<use xlink:href="#SVGID_13_"  overflow="visible"/>
			</clipPath>
			
				<linearGradient id="SVGID_15_" gradientUnits="userSpaceOnUse" x1="3.4727" y1="199.4873" x2="5.2561" y2="199.4873" gradientTransform="matrix(-52.0614 14.3655 -14.3655 -52.0614 3266.2217 10698.5391)">
				<stop  offset="0" style="stop-color:#57C8E1"/>
				<stop  offset="0.0183" style="stop-color:#4DC6E0"/>
				<stop  offset="0.0787" style="stop-color:#31C1DE"/>
				<stop  offset="0.1439" style="stop-color:#1BBCDC"/>
				<stop  offset="0.2154" style="stop-color:#0CB9DB"/>
				<stop  offset="0.298" style="stop-color:#03B8DA"/>
				<stop  offset="0.4172" style="stop-color:#00B7DA"/>
				<stop  offset="0.611" style="stop-color:#0095B9"/>
				<stop  offset="0.8666" style="stop-color:#006E94"/>
				<stop  offset="1" style="stop-color:#005F85"/>
			</linearGradient>
			<polygon clip-path="url(#SVGID_14_)" fill="url(#SVGID_15_)" points="258.677,438.342 110.457,479.268 66.26,318.908 
				214.48,277.982 			"/>
		</g>
	</g>
	<g>
		<g>
			<defs>
				<path id="SVGID_16_" d="M154.872,356.2c0,0,39.327-25.079,35.329,10.322c-1.381,11.922-9.232,16.283-17.955,16.283
					C155.163,382.805,134.882,365.868,154.872,356.2 M144.332,360.27c-35.183,32.784,62.371,49.503,52.92-0.872
					c-3.125-16.574-9.959-22.171-17.664-22.171C163.813,337.227,144.332,360.27,144.332,360.27"/>
			</defs>
			<clipPath id="SVGID_17_">
				<use xlink:href="#SVGID_16_"  overflow="visible"/>
			</clipPath>
			
				<linearGradient id="SVGID_18_" gradientUnits="userSpaceOnUse" x1="-2.8862" y1="204.7324" x2="-1.1029" y2="204.7324" gradientTransform="matrix(7.6002 27.5438 -27.5438 7.6002 5811.8164 -1131.9946)">
				<stop  offset="0" style="stop-color:#57C8E1"/>
				<stop  offset="0.0183" style="stop-color:#4DC6E0"/>
				<stop  offset="0.0787" style="stop-color:#31C1DE"/>
				<stop  offset="0.1439" style="stop-color:#1BBCDC"/>
				<stop  offset="0.2154" style="stop-color:#0CB9DB"/>
				<stop  offset="0.298" style="stop-color:#03B8DA"/>
				<stop  offset="0.4172" style="stop-color:#00B7DA"/>
				<stop  offset="0.611" style="stop-color:#0095B9"/>
				<stop  offset="0.8666" style="stop-color:#006E94"/>
				<stop  offset="1" style="stop-color:#005F85"/>
			</linearGradient>
			<polygon clip-path="url(#SVGID_17_)" fill="url(#SVGID_18_)" points="199.796,306.114 226.911,404.176 116.054,434.779 
				88.94,336.718 			"/>
		</g>
	</g>
	<g>
		<path d="M261.439,346.604c-14.756,0-25.297,11.559-25.297,26.023c0,14.467,10.687,26.242,25.443,26.242
			c14.756,0,25.297-11.557,25.297-26.023C286.955,358.307,276.197,346.604,261.439,346.604 M261.439,405.412
			c-19.627,0-32.856-15.12-32.856-32.639c0-17.519,13.376-32.784,33.075-32.784c19.627,0,32.857,15.12,32.857,32.639
			C294.515,390.147,281.139,405.412,261.439,405.412"/>
	</g>
	<polygon points="304.692,347.476 304.692,341.079 355.141,341.079 355.141,345.877 313.197,397.926 355.141,397.926 
		355.141,404.322 303.311,404.322 303.311,399.523 345.182,347.476 	"/>
	<g>
		<path d="M396.648,346.604c-14.758,0-25.297,11.559-25.297,26.023c0,14.467,10.686,26.242,25.514,26.242
			c14.758,0,25.299-11.557,25.299-26.023C422.09,358.307,411.404,346.604,396.648,346.604 M396.648,405.412
			c-19.699,0-32.857-15.12-32.857-32.639c0-17.519,13.375-32.784,33.074-32.784c19.629,0,32.857,15.12,32.857,32.639
			C429.723,390.147,416.275,405.412,396.648,405.412"/>
	</g>
	<polygon points="492.602,341.079 499.727,341.079 499.727,404.322 493.91,404.322 452.186,352.419 452.186,404.322 
		445.061,404.322 445.061,341.079 451.895,341.079 492.602,391.747 	"/>
</g>
</svg>
