<?xml version="1.0" encoding="utf-8"?>
<!-- Generator: Adobe Illustrator 22.1.0, SVG Export Plug-In . SVG Version: 6.00 Build 0)  -->
<svg version="1.1" id="Layer_1" xmlns="http://www.w3.org/2000/svg" xmlns:xlink="http://www.w3.org/1999/xlink" x="0px" y="0px"
	 viewBox="0 0 623.8 272.1" style="enable-background:new 0 0 623.8 272.1;" xml:space="preserve">
<style type="text/css">
	.st0{fill:#FF4013;}
	.st1{fill:#0D2E4E;}
	.st2{fill:#1A4580;}
	.st3{enable-background:new    ;}
	.st4{fill:#446695;}
</style>
<g id="Group_6574" transform="translate(-4172.958 -19630.004)">
	<g id="Group_6573" transform="translate(0 43.597)">
		<path id="Path_6363" class="st0" d="M4207.5,19739.4c-21.3-20-22.4-53.5-2.4-74.8c19.9-21.2,53.2-22.4,74.5-2.6h22.3
			c-0.2-0.3-0.5-0.7-0.7-1c-21.6-32.1-65.2-40.6-97.4-19c-32.1,21.6-40.6,65.2-19,97.4c13,19.3,34.8,30.9,58.2,30.9
			c23.3,0,45.1-11.6,58.1-30.9c0.4-0.6,0.8-1.3,1.2-1.9h-20.8C4261.6,19758.2,4228.7,19759.1,4207.5,19739.4z"/>
		<path id="Path_6364" class="st0" d="M4792.5,19694.4c-8.5-20.2-28.4-33.3-50.3-33.3c-7.3,0-14.5,1.4-21.2,4.3
			c-27.8,11.7-40.8,43.8-29,71.5c11.7,27.8,43.8,40.8,71.5,29C4791.2,19754.2,4804.2,19722.2,4792.5,19694.4L4792.5,19694.4z
			 M4742,19753.6c-21,0-38.1-17-38.1-38.1s17-38.1,38.1-38.1c21,0,38.1,17,38.1,38.1c0,0,0,0,0,0
			C4780.1,19736.6,4763,19753.6,4742,19753.6L4742,19753.6z"/>
		<path id="Path_6365" class="st0" d="M4414.6,19661.1c-29-0.7-53.1,22.2-53.8,51.2c0,0,0,0,0,0c0,1.1,0,2.3,0,3.4
			c0,32,23.1,54.8,57.7,54.8c16,0.8,31.5-5.6,42.3-17.4l-10.7-12.5c-7.9,8.6-19.2,13.4-31,13c-21.2,0-36.4-12.5-38.9-31.4h87
			c0.2-1.8,0.4-4.2,0.4-5.9C4467.6,19683.4,4445.5,19661.1,4414.6,19661.1z M4380.2,19708.3c1.4-17.8,16.6-31.3,34.4-30.8
			c17.8-0.6,33,13,34.4,30.8H4380.2z"/>
		<path id="Path_6366" class="st0" d="M4363.6,19661.1c-18.8,0-32.2,6.5-39.1,19v-18h-18.6v107.2h19.4v-53.4
			c0-23.5,13-36.2,33.8-36.2c1.5,0,3,0,4.5,0.2V19661.1z"/>
		<path id="Path_6367" class="st0" d="M4635.2,19754.2c-10.7,0-14.1-6.5-14.1-18v-58.1h30.8v-16H4621v-31.5h-19.4v31.5h-6.7v16h6.7
			v58.9c0,21.7,9.7,33.6,31.3,33.6c7.6,0.3,15.1-2.4,20.8-7.5l-6.1-13.9C4644.3,19752.4,4639.8,19754.3,4635.2,19754.2z"/>
		<rect id="Rectangle_6703" x="4660.9" y="19662.1" class="st0" width="19.4" height="107.2"/>
		<path id="Path_6368" class="st0" d="M4566.8,19677.1c-10.2-10.3-24.1-16-38.5-16c-7.3,0-14.5,1.4-21.2,4.3
			c-27.8,11.7-40.9,43.7-29.2,71.5s43.7,40.9,71.5,29.2c6.5-2.7,12.5-6.7,17.5-11.8v15.1h16.8v-107.2h-16.8V19677.1z
			 M4528.2,19753.6c-21,0-38.1-17-38.1-38.1c0-21,17-38.1,38.1-38.1c21,0,38.1,17,38.1,38.1c0,0,0,0,0,0
			C4566.2,19736.6,4549.2,19753.6,4528.2,19753.6L4528.2,19753.6z"/>
	</g>
	<path id="Path_5977" class="st1" d="M4714.4,19673.5l-75.2,17.4l22.4-17.4l-91.7-43.5L4714.4,19673.5z"/>
	<path id="Path_5977-2" class="st2" d="M4714.4,19673.5h-52.8l-91.7-43.5L4714.4,19673.5z"/>
</g>
<g class="st3">
	<path class="st4" d="M12.8,216.7c-1,1-1.4,2.5-1.4,4.5v3.8h9.9v3.7h-9.8v28.4H7.2v-28.4H1.4V225h5.7v-4c0-2.9,0.8-5.2,2.5-7
		c1.7-1.7,4.1-2.6,7.2-2.6c1.2,0,2.4,0.2,3.5,0.5c1.1,0.3,2.1,0.8,2.9,1.5l-1.5,3.2c-1.3-1.1-2.8-1.6-4.8-1.6
		C15.2,215.2,13.8,215.7,12.8,216.7z"/>
	<path class="st4" d="M31.3,255.3c-2.5-1.4-4.4-3.3-5.9-5.8c-1.4-2.5-2.1-5.3-2.1-8.4c0-3.1,0.7-5.9,2.1-8.4
		c1.4-2.5,3.4-4.4,5.9-5.8c2.5-1.4,5.3-2.1,8.4-2.1c3.1,0,5.9,0.7,8.4,2.1c2.5,1.4,4.4,3.3,5.8,5.8s2.1,5.3,2.1,8.4
		c0,3.1-0.7,5.9-2.1,8.4c-1.4,2.5-3.3,4.4-5.8,5.8c-2.5,1.4-5.3,2.1-8.4,2.1C36.6,257.4,33.8,256.7,31.3,255.3z M45.8,252
		c1.8-1,3.2-2.5,4.2-4.4c1-1.9,1.5-4.1,1.5-6.5s-0.5-4.6-1.5-6.5c-1-1.9-2.4-3.4-4.2-4.4c-1.8-1-3.9-1.6-6.1-1.6
		c-2.3,0-4.3,0.5-6.1,1.6c-1.8,1-3.2,2.5-4.3,4.4c-1,1.9-1.6,4.1-1.6,6.5s0.5,4.6,1.6,6.5s2.5,3.4,4.3,4.4c1.8,1,3.9,1.6,6.1,1.6
		C42,253.5,44,253,45.8,252z"/>
	<path class="st4" d="M73.5,226.4c2-1.1,4.5-1.6,7.5-1.6v4.2l-1-0.1c-3.4,0-6,1-7.9,3.1c-1.9,2.1-2.9,5-2.9,8.7v16.3h-4.3V225H69
		v6.3C70,229.1,71.5,227.5,73.5,226.4z"/>
	<path class="st4" d="M138.3,228.2c2.3,2.3,3.4,5.7,3.4,10.2v18.6h-4.3v-18.2c0-3.3-0.8-5.9-2.4-7.6c-1.6-1.7-3.9-2.6-6.8-2.6
		c-3.3,0-6,1-7.9,3.1c-1.9,2.1-2.9,4.9-2.9,8.5v16.8h-4.3v-18.2c0-3.3-0.8-5.9-2.4-7.6c-1.6-1.7-3.9-2.6-6.9-2.6
		c-3.3,0-5.9,1-7.8,3.1c-1.9,2.1-2.9,4.9-2.9,8.5v16.8h-4.3V225h4.1v5.9c1.1-2,2.7-3.5,4.8-4.5c2-1.1,4.4-1.6,7-1.6
		c2.7,0,5,0.6,7,1.7c2,1.1,3.4,2.8,4.4,5.1c1.2-2.1,2.9-3.8,5.1-5c2.2-1.2,4.7-1.8,7.6-1.8C132.8,224.7,136,225.9,138.3,228.2z"/>
	<path class="st4" d="M181.6,242.4h-26.8c0.2,3.3,1.5,6,3.8,8.1s5.2,3.1,8.8,3.1c2,0,3.8-0.4,5.5-1.1c1.7-0.7,3.1-1.8,4.3-3.1
		l2.4,2.8c-1.4,1.7-3.2,3-5.3,3.9c-2.1,0.9-4.5,1.3-7,1.3c-3.3,0-6.2-0.7-8.8-2.1c-2.5-1.4-4.5-3.3-5.9-5.8
		c-1.4-2.5-2.1-5.3-2.1-8.4c0-3.1,0.7-5.9,2-8.4c1.4-2.5,3.2-4.4,5.6-5.8c2.4-1.4,5.1-2.1,8-2.1c3,0,5.6,0.7,8,2.1
		c2.4,1.4,4.2,3.3,5.6,5.8c1.3,2.5,2,5.3,2,8.4L181.6,242.4z M158.3,231.4c-2.1,2-3.3,4.5-3.6,7.7h22.8c-0.3-3.2-1.5-5.7-3.6-7.7
		c-2.1-2-4.7-3-7.8-3C163,228.5,160.4,229.5,158.3,231.4z"/>
	<path class="st4" d="M199.2,226.4c2-1.1,4.5-1.6,7.5-1.6v4.2l-1-0.1c-3.4,0-6,1-7.9,3.1c-1.9,2.1-2.9,5-2.9,8.7v16.3h-4.3V225h4.1
		v6.3C195.6,229.1,197.1,227.5,199.2,226.4z"/>
	<path class="st4" d="M214.4,211.8h4.3v45.3h-4.3V211.8z"/>
	<path class="st4" d="M257.8,225l-16,35.9c-1.3,3-2.8,5.1-4.5,6.4c-1.7,1.3-3.8,1.9-6.2,1.9c-1.5,0-3-0.2-4.3-0.7
		c-1.3-0.5-2.5-1.2-3.5-2.2l2-3.2c1.6,1.6,3.6,2.4,5.9,2.4c1.5,0,2.7-0.4,3.8-1.2c1-0.8,2-2.2,2.9-4.1l1.4-3.1l-14.3-32h4.5
		l12.1,27.3l12.1-27.3H257.8z"/>
	<path class="st4" d="M304.6,226.8c2.4,1.4,4.4,3.3,5.7,5.8c1.4,2.5,2.1,5.3,2.1,8.5s-0.7,6-2.1,8.5c-1.4,2.5-3.3,4.4-5.7,5.8
		c-2.4,1.4-5.2,2.1-8.2,2.1c-2.7,0-5.1-0.6-7.2-1.7c-2.1-1.1-3.9-2.8-5.2-4.9v6.3h-4.1v-45.3h4.3v19.3c1.3-2.1,3.1-3.6,5.2-4.7
		c2.1-1.1,4.4-1.6,7-1.6C299.4,224.7,302.2,225.4,304.6,226.8z M302.2,252c1.8-1,3.3-2.5,4.3-4.4s1.6-4.1,1.6-6.5s-0.5-4.6-1.6-6.5
		c-1-1.9-2.5-3.4-4.3-4.4s-3.9-1.6-6.1-1.6c-2.3,0-4.3,0.5-6.1,1.6c-1.8,1-3.2,2.5-4.3,4.4c-1,1.9-1.6,4.1-1.6,6.5s0.5,4.6,1.6,6.5
		c1,1.9,2.5,3.4,4.3,4.4c1.8,1,3.9,1.6,6.1,1.6C298.4,253.5,300.4,253,302.2,252z"/>
	<path class="st4" d="M346,226.8c2.4,1.4,4.3,3.3,5.7,5.8c1.4,2.5,2.1,5.3,2.1,8.5c0,3.2-0.7,6.1-2.1,8.5s-3.3,4.4-5.7,5.8
		c-2.4,1.4-5.2,2-8.2,2c-2.6,0-5-0.5-7-1.6c-2.1-1.1-3.8-2.7-5.2-4.7v17.9h-4.3V225h4.1v6.3c1.3-2.1,3-3.7,5.2-4.9
		c2.1-1.1,4.5-1.7,7.2-1.7C340.8,224.7,343.5,225.4,346,226.8z M343.6,252c1.8-1,3.3-2.5,4.3-4.4c1-1.9,1.6-4.1,1.6-6.5
		s-0.5-4.6-1.6-6.5c-1-1.9-2.5-3.4-4.3-4.4c-1.8-1.1-3.9-1.6-6.1-1.6c-2.3,0-4.3,0.5-6.1,1.6c-1.8,1.1-3.2,2.5-4.3,4.4
		c-1,1.9-1.6,4.1-1.6,6.5s0.5,4.6,1.6,6.5s2.5,3.4,4.3,4.4c1.8,1,3.9,1.6,6.1,1.6C339.7,253.5,341.7,253,343.6,252z"/>
	<path class="st4" d="M412.1,228.2c2.3,2.3,3.4,5.7,3.4,10.2v18.6h-4.3v-18.2c0-3.3-0.8-5.9-2.4-7.6c-1.6-1.7-3.9-2.6-6.8-2.6
		c-3.3,0-6,1-7.9,3.1c-1.9,2.1-2.9,4.9-2.9,8.5v16.8h-4.3v-18.2c0-3.3-0.8-5.9-2.4-7.6c-1.6-1.7-3.9-2.6-6.9-2.6
		c-3.3,0-5.9,1-7.8,3.1c-1.9,2.1-2.9,4.9-2.9,8.5v16.8h-4.3V225h4.1v5.9c1.1-2,2.7-3.5,4.8-4.5c2-1.1,4.4-1.6,7-1.6
		c2.7,0,5,0.6,7,1.7c2,1.1,3.4,2.8,4.4,5.1c1.2-2.1,2.9-3.8,5.1-5c2.2-1.2,4.7-1.8,7.6-1.8C406.6,224.7,409.8,225.9,412.1,228.2z"/>
	<path class="st4" d="M429.6,212.5c0.6,0.6,0.9,1.4,0.9,2.3c0,0.5-0.1,1-0.2,1.6c-0.1,0.5-0.3,1.2-0.6,1.9l-2.6,8.4h-2.9l2.1-8.8
		c-0.7-0.2-1.2-0.6-1.6-1.1c-0.4-0.5-0.6-1.2-0.6-2c0-1,0.3-1.8,0.9-2.4c0.6-0.6,1.4-0.9,2.3-0.9C428.3,211.5,429,211.8,429.6,212.5
		z"/>
	<path class="st4" d="M442.8,255.3c-2.5-1.4-4.4-3.3-5.9-5.8c-1.4-2.5-2.1-5.3-2.1-8.4c0-3.1,0.7-5.9,2.1-8.4s3.4-4.4,5.9-5.8
		c2.5-1.4,5.3-2.1,8.4-2.1s5.9,0.7,8.4,2.1c2.5,1.4,4.4,3.3,5.8,5.8c1.4,2.5,2.1,5.3,2.1,8.4c0,3.1-0.7,5.9-2.1,8.4
		c-1.4,2.5-3.3,4.4-5.8,5.8c-2.5,1.4-5.3,2.1-8.4,2.1S445.3,256.7,442.8,255.3z M457.3,252c1.8-1,3.2-2.5,4.2-4.4
		c1-1.9,1.5-4.1,1.5-6.5s-0.5-4.6-1.5-6.5c-1-1.9-2.4-3.4-4.2-4.4c-1.8-1-3.9-1.6-6.1-1.6s-4.3,0.5-6.1,1.6c-1.8,1-3.2,2.5-4.3,4.4
		c-1,1.9-1.6,4.1-1.6,6.5s0.5,4.6,1.6,6.5s2.5,3.4,4.3,4.4c1.8,1,3.9,1.6,6.1,1.6S455.5,253,457.3,252z"/>
	<path class="st4" d="M502.3,228.3c2.4,2.3,3.6,5.7,3.6,10.2v18.6h-4.3v-18.2c0-3.3-0.8-5.9-2.5-7.6c-1.7-1.7-4-2.6-7.1-2.6
		c-3.5,0-6.2,1-8.2,3.1c-2,2.1-3,4.9-3,8.5v16.8h-4.3V225h4.1v5.9c1.2-2,2.8-3.5,4.9-4.5c2.1-1.1,4.5-1.6,7.3-1.6
		C496.7,224.7,499.9,225.9,502.3,228.3z"/>
	<path class="st4" d="M517.6,211.8h4.3v45.3h-4.3V211.8z"/>
	<path class="st4" d="M534,217.1c-0.6-0.6-0.9-1.3-0.9-2.2c0-0.8,0.3-1.5,0.9-2.1c0.6-0.6,1.4-0.9,2.3-0.9s1.6,0.3,2.3,0.9
		c0.6,0.6,0.9,1.3,0.9,2.1c0,0.9-0.3,1.6-0.9,2.3c-0.6,0.6-1.4,0.9-2.3,0.9S534.6,217.7,534,217.1z M534,225h4.3v32.1H534V225z"/>
	<path class="st4" d="M576.4,228.3c2.4,2.3,3.6,5.7,3.6,10.2v18.6h-4.3v-18.2c0-3.3-0.8-5.9-2.5-7.6c-1.7-1.7-4-2.6-7.1-2.6
		c-3.5,0-6.2,1-8.2,3.1c-2,2.1-3,4.9-3,8.5v16.8h-4.3V225h4.1v5.9c1.2-2,2.8-3.5,4.9-4.5c2.1-1.1,4.5-1.6,7.3-1.6
		C570.8,224.7,574,225.9,576.4,228.3z"/>
	<path class="st4" d="M619.8,242.4h-26.8c0.2,3.3,1.5,6,3.8,8.1c2.3,2.1,5.2,3.1,8.8,3.1c2,0,3.8-0.4,5.5-1.1
		c1.7-0.7,3.1-1.8,4.3-3.1l2.4,2.8c-1.4,1.7-3.2,3-5.3,3.9c-2.1,0.9-4.5,1.3-7,1.3c-3.3,0-6.2-0.7-8.8-2.1c-2.5-1.4-4.5-3.3-5.9-5.8
		c-1.4-2.5-2.1-5.3-2.1-8.4c0-3.1,0.7-5.9,2-8.4c1.4-2.5,3.2-4.4,5.6-5.8c2.4-1.4,5.1-2.1,8-2.1s5.6,0.7,8,2.1
		c2.4,1.4,4.2,3.3,5.6,5.8c1.3,2.5,2,5.3,2,8.4L619.8,242.4z M596.5,231.4c-2.1,2-3.3,4.5-3.6,7.7h22.8c-0.3-3.2-1.5-5.7-3.6-7.7
		c-2.1-2-4.7-3-7.8-3C601.2,228.5,598.6,229.5,596.5,231.4z"/>
</g>
</svg>
