<?xml version="1.0" encoding="iso-8859-1"?>
<!-- Generator: Adobe Illustrator 19.0.0, SVG Export Plug-In . SVG Version: 6.00 Build 0)  -->
<svg version="1.1" id="Layer_1" xmlns="http://www.w3.org/2000/svg" xmlns:xlink="http://www.w3.org/1999/xlink" x="0px" y="0px"
	 viewBox="0 0 512.001 512.001" style="enable-background:new 0 0 512.001 512.001;" xml:space="preserve">
<polygon style="fill:#FFD311;" points="356.514,118.856 256.001,465.07 254.549,465.516 155.487,118.856 "/>
<polygon style="fill:#F9B41D;" points="256.001,465.07 356.514,118.856 501.701,118.856 256.001,470.654 254.549,465.516 "/>
<g>
	<polygon style="fill:#FDB51E;" points="254.549,465.516 256.001,470.654 10.3,118.856 155.487,118.856 	"/>
	<polygon style="fill:#FDB51E;" points="440.276,35.094 356.514,118.856 256.001,35.094 	"/>
	<polygon style="fill:#FDB51E;" points="256.001,35.094 155.487,118.856 71.725,35.094 	"/>
</g>
<g>
	<polygon style="fill:#FFD311;" points="440.276,35.094 501.701,118.856 356.514,118.856 	"/>
	<polygon style="fill:#FFD311;" points="356.514,118.856 155.487,118.856 256.001,35.094 	"/>
	<polygon style="fill:#FFD311;" points="155.487,118.856 10.3,118.856 71.725,35.094 	"/>
</g>
<polygon style="fill:#F9B81C;" points="155.487,118.856 254.549,465.516 256.001,465.07 256.001,118.856 "/>
<polygon style="fill:#F9B41D;" points="254.549,465.516 256.001,470.654 256.001,465.07 "/>
<g>
	<polygon style="fill:#F89721;" points="155.487,118.856 10.3,118.856 256.001,470.654 254.549,465.516 	"/>
	<polygon style="fill:#F89721;" points="256.001,35.094 71.725,35.094 155.487,118.856 	"/>
</g>
<g>
	<polygon style="fill:#F9B81C;" points="256.001,118.856 256.001,35.094 155.487,118.856 	"/>
	<polygon style="fill:#F9B81C;" points="71.725,35.094 10.3,118.856 155.487,118.856 	"/>
</g>
<path d="M444.52,26.718H67.48L0,118.737l256.001,366.546l256.001-366.546L444.52,26.718z M345.361,127.232l-90.093,310.319
	L166.59,127.232C166.59,127.232,345.361,127.232,345.361,127.232z M178.623,110.48l77.378-64.482l77.378,64.482H178.623z
	 M279.137,43.471h140.917l-64.053,64.053L279.137,43.471z M156.001,107.525L91.948,43.471h140.917L156.001,107.525z M135.265,110.48
	H26.83l45.876-62.559L135.265,110.48z M149.169,127.232l85.039,297.592L26.367,127.232H149.169z M362.803,127.232h122.83
	L275.42,428.22L362.803,127.232z M376.736,110.48l62.559-62.559l45.877,62.559H376.736z"/>
<g>
	<rect x="211.324" y="149.565" style="fill:#FFFFFF;" width="89.346" height="16.752"/>
	<rect x="378.847" y="149.565" style="fill:#FFFFFF;" width="50.257" height="16.752"/>
	<rect x="77.306" y="149.565" style="fill:#FFFFFF;" width="50.257" height="16.752"/>
</g>
<g>
</g>
<g>
</g>
<g>
</g>
<g>
</g>
<g>
</g>
<g>
</g>
<g>
</g>
<g>
</g>
<g>
</g>
<g>
</g>
<g>
</g>
<g>
</g>
<g>
</g>
<g>
</g>
<g>
</g>
</svg>
