<?xml version="1.0" encoding="iso-8859-1"?>
<!-- Generator: Adobe Illustrator 19.0.0, SVG Export Plug-In . SVG Version: 6.00 Build 0)  -->
<svg version="1.1" id="Layer_1" xmlns="http://www.w3.org/2000/svg" xmlns:xlink="http://www.w3.org/1999/xlink" x="0px" y="0px"
	 viewBox="0 0 512 512" style="enable-background:new 0 0 512 512;" xml:space="preserve">
<polygon style="fill:#E7ECED;" points="459.941,20.931 486.776,85.333 433.107,85.333 "/>
<rect x="433.107" y="450.281" style="fill:#AFB6BB;" width="53.669" height="53.669"/>
<rect x="433.107" y="85.333" style="fill:#0071BC;" width="53.669" height="364.948"/>
<rect x="116.461" y="47.765" style="fill:#FFD311;" width="230.776" height="155.639"/>
<path style="fill:#685642;" d="M73.526,503.95H35.958c-5.904,0-10.734-4.83-10.734-10.734V20.931c0-5.904,4.83-10.734,10.734-10.734
	h37.568V503.95z"/>
<path style="fill:#704324;" d="M379.438,10.197H73.526v241.509V503.95h305.912c5.904,0,10.734-4.83,10.734-10.734V20.931
	C390.172,15.027,385.342,10.197,379.438,10.197z M116.461,47.765h230.776v155.639H116.461V47.765z"/>
<rect x="116.461" y="47.765" style="fill:#FAB91C;" width="230.776" height="85.87"/>
<polygon style="fill:#A26234;" points="116.461,203.405 116.461,47.765 229.166,47.765 229.166,10.197 73.526,10.197 73.526,503.95 
	229.166,503.95 229.166,203.405 "/>
<rect x="433.107" y="85.333" style="fill:#0C609F;" width="26.834" height="364.948"/>
<g>
	<rect x="105.727" y="243.656" style="fill:#FFFFFF;" width="252.243" height="16.101"/>
	<rect x="331.136" y="281.224" style="fill:#FFFFFF;" width="26.834" height="16.101"/>
	<rect x="288.201" y="281.224" style="fill:#FFFFFF;" width="26.834" height="16.101"/>
	<rect x="331.136" y="458.331" style="fill:#FFFFFF;" width="26.834" height="16.101"/>
	<rect x="331.136" y="426.13" style="fill:#FFFFFF;" width="26.834" height="16.101"/>
	<rect x="288.201" y="458.331" style="fill:#FFFFFF;" width="26.834" height="16.101"/>
	<rect x="105.727" y="281.224" style="fill:#FFFFFF;" width="26.834" height="16.101"/>
</g>
<path d="M379.438,2.147H35.958c-10.357,0-18.784,8.427-18.784,18.784v472.285c0,10.357,8.427,18.784,18.784,18.784h343.48
	c10.357,0,18.784-8.427,18.784-18.784V20.931C398.222,10.574,389.795,2.147,379.438,2.147z M33.275,493.216V20.931
	c0-1.454,1.229-2.683,2.683-2.683h29.518v477.652H35.958C34.504,495.899,33.275,494.67,33.275,493.216z M382.122,493.216
	c0,1.454-1.229,2.683-2.683,2.683H81.577V18.247h297.862c1.454,0,2.683,1.229,2.683,2.683V493.216z"/>
<path d="M108.411,211.455h246.876V39.715H108.411V211.455z M124.512,55.816h214.675v139.539H124.512V55.816z"/>
<path d="M459.941,0l-34.885,83.723V512h69.769V83.723L459.941,0z M474.7,77.283h-29.518l14.759-35.421L474.7,77.283z
	 M478.725,93.384v348.847h-37.568V93.384H478.725z M441.157,495.899v-37.568h37.568v37.568H441.157z"/>
<g>
	<rect x="441.222" y="125.585" style="fill:#FFFFFF;" width="37.381" height="16.101"/>
	<rect x="441.222" y="393.929" style="fill:#FFFFFF;" width="37.381" height="16.101"/>
</g>
<g>
</g>
<g>
</g>
<g>
</g>
<g>
</g>
<g>
</g>
<g>
</g>
<g>
</g>
<g>
</g>
<g>
</g>
<g>
</g>
<g>
</g>
<g>
</g>
<g>
</g>
<g>
</g>
<g>
</g>
</svg>
