<?xml version="1.0" encoding="iso-8859-1"?>
<!-- Generator: Adobe Illustrator 19.0.0, SVG Export Plug-In . SVG Version: 6.00 Build 0)  -->
<svg version="1.1" id="Layer_1" xmlns="http://www.w3.org/2000/svg" xmlns:xlink="http://www.w3.org/1999/xlink" x="0px" y="0px"
	 viewBox="0 0 512 512" style="enable-background:new 0 0 512 512;" xml:space="preserve">
<rect x="7.918" y="113.485" style="fill:#0071BC;" width="496.165" height="358.928"/>
<rect x="7.918" y="39.588" style="fill:#7E8488;" width="496.165" height="73.897"/>
<rect x="7.918" y="113.485" style="fill:#0063A7;" width="248.082" height="358.928"/>
<rect x="7.918" y="39.588" style="fill:#73797C;" width="248.082" height="73.897"/>
<g>
	<rect x="50.144" y="200.577" style="fill:#FFFFFF;" width="36.948" height="15.835"/>
	<rect x="50.144" y="285.031" style="fill:#FFFFFF;" width="36.948" height="15.835"/>
	<rect x="50.144" y="369.485" style="fill:#FFFFFF;" width="36.948" height="15.835"/>
	<rect x="366.845" y="158.351" style="fill:#FFFFFF;" width="95.01" height="15.835"/>
	<rect x="166.268" y="158.351" style="fill:#FFFFFF;" width="42.227" height="15.835"/>
	<rect x="282.392" y="200.577" style="fill:#FFFFFF;" width="84.454" height="15.835"/>
	<rect x="166.268" y="285.031" style="fill:#FFFFFF;" width="84.454" height="15.835"/>
	<rect x="435.464" y="369.485" style="fill:#FFFFFF;" width="26.392" height="15.835"/>
	<rect x="277.113" y="327.258" style="fill:#FFFFFF;" width="68.619" height="15.835"/>
</g>
<path d="M0,31.67v448.66h512V31.67H0z M496.165,47.505v58.062H15.835V47.505H496.165z M15.835,464.495V121.402h480.33v343.093
	H15.835z"/>
<rect x="39.588" y="68.619" width="21.113" height="15.835"/>
<rect x="71.258" y="68.619" width="21.113" height="15.835"/>
<rect x="451.299" y="68.619" width="21.113" height="15.835"/>
<rect x="121.402" y="155.711" width="15.835" height="274.474"/>
<rect x="50.144" y="158.351" width="36.948" height="15.835"/>
<rect x="50.144" y="242.804" width="36.948" height="15.835"/>
<rect x="50.144" y="327.258" width="36.948" height="15.835"/>
<rect x="50.144" y="411.711" width="36.948" height="15.835"/>
<rect x="229.608" y="158.351" width="100.289" height="15.835"/>
<rect x="166.268" y="200.577" width="89.732" height="15.835"/>
<rect x="440.742" y="242.804" width="21.113" height="15.835"/>
<rect x="219.052" y="242.804" width="190.021" height="15.835"/>
<rect x="166.268" y="242.804" width="26.392" height="15.835"/>
<rect x="372.124" y="285.031" width="89.732" height="15.835"/>
<rect x="282.392" y="285.031" width="68.619" height="15.835"/>
<rect x="387.959" y="200.577" width="36.948" height="15.835"/>
<rect x="261.278" y="411.711" width="84.454" height="15.835"/>
<rect x="372.124" y="411.711" width="89.732" height="15.835"/>
<rect x="166.268" y="369.485" width="21.113" height="15.835"/>
<rect x="219.052" y="369.485" width="190.021" height="15.835"/>
<rect x="166.268" y="327.258" width="89.732" height="15.835"/>
<rect x="377.402" y="327.258" width="84.454" height="15.835"/>
<rect x="203.217" y="411.711" style="fill:#FFFFFF;" width="36.948" height="15.835"/>
<g>
</g>
<g>
</g>
<g>
</g>
<g>
</g>
<g>
</g>
<g>
</g>
<g>
</g>
<g>
</g>
<g>
</g>
<g>
</g>
<g>
</g>
<g>
</g>
<g>
</g>
<g>
</g>
<g>
</g>
</svg>
