<?xml version="1.0" encoding="iso-8859-1"?>
<!-- Generator: Adobe Illustrator 19.0.0, SVG Export Plug-In . SVG Version: 6.00 Build 0)  -->
<svg version="1.1" id="Layer_1" xmlns="http://www.w3.org/2000/svg" xmlns:xlink="http://www.w3.org/1999/xlink" x="0px" y="0px"
	 viewBox="0 0 512 512" style="enable-background:new 0 0 512 512;" xml:space="preserve">
<g>
	<path style="fill:#7E8488;" d="M396.652,413.529v78.765c0,6.189-5.063,11.252-11.252,11.252H126.601
		c-6.189,0-11.252-5.063-11.252-11.252v-78.765H396.652z"/>
	<path style="fill:#7E8488;" d="M396.652,19.706v67.512H115.348V19.706c0-6.189,5.063-11.252,11.252-11.252h258.799
		C391.587,8.454,396.652,13.517,396.652,19.706z"/>
</g>
<rect x="115.352" y="87.218" style="fill:#00ABD5;" width="281.301" height="326.308"/>
<polygon style="fill:#009DD3;" points="396.652,87.218 115.348,87.218 115.348,413.529 177.235,413.529 396.652,194.113 "/>
<rect x="154.734" y="295.379" style="fill:#F23222;" width="202.536" height="78.765"/>
<polygon style="fill:#FFD311;" points="357.269,205.365 357.269,295.382 154.731,295.382 154.731,250.374 154.731,205.365 
	351.643,205.365 "/>
<polygon style="fill:#36C63F;" points="357.269,126.601 357.269,205.365 351.643,205.365 154.731,205.365 154.731,126.601 "/>
<rect x="154.734" y="126.601" style="fill:#00A84F;" width="202.536" height="39.382"/>
<rect x="154.734" y="205.365" style="fill:#FAB91C;" width="202.536" height="45.008"/>
<rect x="154.734" y="295.379" style="fill:#C92C1E;" width="202.536" height="39.382"/>
<path d="M385.399,0H126.601c-10.866,0-19.705,8.84-19.705,19.706v472.588c0,10.866,8.84,19.706,19.705,19.706h258.799
	c10.866,0,19.705-8.84,19.705-19.706V19.706C405.105,8.84,396.265,0,385.399,0z M126.601,16.907h258.799
	c1.517,0,2.798,1.282,2.798,2.799v59.059H123.802V19.706C123.802,18.189,125.084,16.907,126.601,16.907z M388.198,95.672v309.404
	H123.802V95.672H388.198z M385.399,495.093H126.601c-1.517,0-2.798-1.282-2.798-2.799v-70.311h264.395v70.311
	C388.198,493.811,386.917,495.093,385.399,495.093z"/>
<rect x="205.365" y="39.382" width="101.274" height="16.907"/>
<rect x="239.123" y="450.079" width="33.756" height="16.907"/>
<path d="M365.722,382.601V118.147H146.277v264.454H365.722z M348.815,286.929h-185.63v-73.11h185.63V286.929z M163.184,365.694
	v-61.858h185.63v61.858H163.184z M348.815,135.054v61.858h-185.63v-61.858C163.184,135.054,348.815,135.054,348.815,135.054z"/>
<g>
	<rect x="182.868" y="157.529" style="fill:#FFFFFF;" width="101.274" height="16.907"/>
	<rect x="306.639" y="157.529" style="fill:#FFFFFF;" width="22.503" height="16.907"/>
	<rect x="306.639" y="241.919" style="fill:#FFFFFF;" width="22.503" height="16.907"/>
	<rect x="182.868" y="241.919" style="fill:#FFFFFF;" width="101.274" height="16.907"/>
	<rect x="182.868" y="326.308" style="fill:#FFFFFF;" width="101.274" height="16.907"/>
	<rect x="306.639" y="326.308" style="fill:#FFFFFF;" width="22.503" height="16.907"/>
</g>
<g>
</g>
<g>
</g>
<g>
</g>
<g>
</g>
<g>
</g>
<g>
</g>
<g>
</g>
<g>
</g>
<g>
</g>
<g>
</g>
<g>
</g>
<g>
</g>
<g>
</g>
<g>
</g>
<g>
</g>
</svg>
