<?xml version="1.0" encoding="iso-8859-1"?>
<!-- Generator: Adobe Illustrator 19.0.0, SVG Export Plug-In . SVG Version: 6.00 Build 0)  -->
<svg version="1.1" id="Layer_1" xmlns="http://www.w3.org/2000/svg" xmlns:xlink="http://www.w3.org/1999/xlink" x="0px" y="0px"
	 viewBox="0 0 512 512" style="enable-background:new 0 0 512 512;" xml:space="preserve">
<rect x="308.779" y="224.333" style="fill:#595E62;" width="158.339" height="211.126"/>
<rect x="308.779" y="150.44" style="fill:#7E8488;" width="158.339" height="73.893"/>
<rect x="229.61" y="282.385" style="fill:#0071BC;" width="42.224" height="100.286"/>
<rect x="155.717" y="192.663" style="fill:#F23222;" width="42.224" height="190.009"/>
<rect x="81.824" y="298.226" style="fill:#36C63F;" width="42.224" height="84.446"/>
<g>
	<path style="fill:#E7ECED;" d="M124.049,298.225H81.824v84.449h42.224v-84.449H124.049z M197.942,382.673v-190.01h-42.225v190.01
		H197.942z M229.61,282.39v100.283h42.224V282.39H229.61z M308.781,435.454H44.877V150.438H308.78v285.017H308.781z"/>
	<polygon style="fill:#E7ECED;" points="504.069,113.491 504.069,472.401 256,472.401 256,435.454 308.781,435.454 467.123,435.454 
		467.123,224.331 467.123,150.438 308.781,150.438 256,150.438 256,113.491 	"/>
</g>
<rect x="256.003" y="39.598" style="fill:#FFD311;" width="248.072" height="73.893"/>
<polygon style="fill:#CCD1D2;" points="256,435.454 256,472.401 7.931,472.401 7.931,113.491 256,113.491 256,150.438 
	44.877,150.438 44.877,435.454 "/>
<rect x="7.931" y="39.598" style="fill:#FDB51E;" width="248.072" height="73.893"/>
<path style="fill:#DBDFE1;" d="M250.734,382.673H229.61v-16.556c-11.122-9.365-21.675-19.368-31.669-29.916v46.473h-42.224v-99.683
	c-26.126-39.675-45.147-84.443-55.177-132.553H44.877v285.016H308.78v-17.764C288.34,407.716,268.945,395.962,250.734,382.673z
	 M124.049,382.673H81.824v-84.449h42.224v84.449H124.049z"/>
<g>
	<rect x="39.6" y="68.615" style="fill:#FFFFFF;" width="21.113" height="15.861"/>
	<rect x="71.271" y="68.615" style="fill:#FFFFFF;" width="21.113" height="15.861"/>
	<rect x="451.289" y="68.615" style="fill:#FFFFFF;" width="21.113" height="15.861"/>
</g>
<path d="M0,31.668v448.663h512V31.668H0z M496.139,47.53v58.032H15.861V47.53H496.139z M15.861,464.47V121.423h480.277V464.47
	H15.861z"/>
<path d="M36.947,443.385h438.107V142.507H36.947V443.385z M316.712,427.524V232.261h142.481v195.261H316.712V427.524z
	 M459.192,216.4h-142.48v-58.032h142.481V216.4H459.192z M52.808,158.368H300.85v269.154H52.808V158.368z"/>
<path d="M147.786,390.605h58.087V184.732h-58.087V390.605z M163.647,200.593h26.364v174.149h-26.364V200.593z"/>
<path d="M221.679,274.459v116.145h58.087V274.459H221.679z M263.904,374.743H237.54v-84.422h26.364V374.743L263.904,374.743z"/>
<path d="M73.893,390.605h58.086V290.294H73.893V390.605z M89.754,306.154h26.363v68.588H89.754V306.154z"/>
<g>
	<rect x="335.173" y="179.455" style="fill:#FFFFFF;" width="68.615" height="15.861"/>
	<rect x="356.29" y="258.625" style="fill:#FFFFFF;" width="84.446" height="15.861"/>
	<rect x="335.173" y="295.572" style="fill:#FFFFFF;" width="105.563" height="15.861"/>
	<rect x="335.173" y="337.795" style="fill:#FFFFFF;" width="105.563" height="15.861"/>
	<rect x="335.173" y="380.018" style="fill:#FFFFFF;" width="89.723" height="15.861"/>
	<rect x="419.619" y="179.455" style="fill:#FFFFFF;" width="21.113" height="15.861"/>
</g>
<g>
</g>
<g>
</g>
<g>
</g>
<g>
</g>
<g>
</g>
<g>
</g>
<g>
</g>
<g>
</g>
<g>
</g>
<g>
</g>
<g>
</g>
<g>
</g>
<g>
</g>
<g>
</g>
<g>
</g>
</svg>
